<mxfile host="Electron" modified="2024-04-26T22:02:37.391Z" agent="Mozilla/5.0 (Windows NT 10.0; Win64; x64) AppleWebKit/537.36 (KHTML, like Gecko) draw.io/22.1.18 Chrome/120.0.6099.199 Electron/28.1.2 Safari/537.36" etag="gcrQw2vNxmceBPa1GQ6G" version="22.1.18" type="device">
  <diagram name="Page-1" id="enYhW0UrNAh-7SSSVYLh">
    <mxGraphModel dx="2846" dy="1777" grid="1" gridSize="10" guides="1" tooltips="1" connect="1" arrows="1" fold="1" page="1" pageScale="1" pageWidth="850" pageHeight="1100" math="0" shadow="0">
      <root>
        <mxCell id="0" />
        <mxCell id="1" parent="0" />
        <mxCell id="N-NKB87Ngrz7SJYQhEhb-11" value="&lt;b&gt;&lt;font style=&quot;font-size: 30px;&quot;&gt;Review Module&lt;/font&gt;&lt;/b&gt;" style="verticalAlign=top;align=left;spacingTop=8;spacingLeft=2;spacingRight=12;shape=cube;size=10;direction=south;fontStyle=4;html=1;whiteSpace=wrap;" parent="1" vertex="1">
          <mxGeometry x="40" y="40" width="670" height="560" as="geometry" />
        </mxCell>
        <mxCell id="D73C4jS4Ygv3wC38gtfG-2" style="edgeStyle=orthogonalEdgeStyle;rounded=0;orthogonalLoop=1;jettySize=auto;html=1;" edge="1" parent="1" source="N-NKB87Ngrz7SJYQhEhb-5" target="D73C4jS4Ygv3wC38gtfG-1">
          <mxGeometry relative="1" as="geometry" />
        </mxCell>
        <mxCell id="N-NKB87Ngrz7SJYQhEhb-5" value="&lt;span style=&quot;font-size: 20px;&quot;&gt;&lt;b&gt;LSTM&lt;br&gt;&lt;/b&gt;&lt;/span&gt;" style="verticalAlign=middle;align=center;spacingTop=0;spacingLeft=0;spacingRight=0;shape=cube;size=10;direction=south;fontStyle=4;html=1;whiteSpace=wrap;spacing=0;" parent="1" vertex="1">
          <mxGeometry x="180" y="130" width="90" height="120" as="geometry" />
        </mxCell>
        <mxCell id="N-NKB87Ngrz7SJYQhEhb-16" style="edgeStyle=orthogonalEdgeStyle;rounded=0;orthogonalLoop=1;jettySize=auto;html=1;" parent="1" source="N-NKB87Ngrz7SJYQhEhb-12" target="N-NKB87Ngrz7SJYQhEhb-5" edge="1">
          <mxGeometry relative="1" as="geometry" />
        </mxCell>
        <mxCell id="N-NKB87Ngrz7SJYQhEhb-12" value="&lt;p style=&quot;margin:0px;margin-top:4px;text-align:center;text-decoration:underline;&quot;&gt;&lt;b&gt;Review Text&lt;/b&gt;&lt;/p&gt;&lt;hr&gt;&lt;p style=&quot;margin:0px;margin-left:8px;&quot;&gt;&quot;I got this game after I played the Gamecube version and this one is alot better.&quot;&lt;br&gt;&lt;/p&gt;" style="verticalAlign=top;align=left;overflow=fill;fontSize=12;fontFamily=Helvetica;html=1;whiteSpace=wrap;" parent="1" vertex="1">
          <mxGeometry x="50" y="120" width="100" height="140" as="geometry" />
        </mxCell>
        <mxCell id="N-NKB87Ngrz7SJYQhEhb-17" style="edgeStyle=orthogonalEdgeStyle;rounded=0;orthogonalLoop=1;jettySize=auto;html=1;" parent="1" source="N-NKB87Ngrz7SJYQhEhb-13" target="N-NKB87Ngrz7SJYQhEhb-15" edge="1">
          <mxGeometry relative="1" as="geometry" />
        </mxCell>
        <mxCell id="N-NKB87Ngrz7SJYQhEhb-13" value="&lt;p style=&quot;margin:0px;margin-top:4px;text-align:center;text-decoration:underline;&quot;&gt;&lt;b&gt;Product Id&lt;/b&gt;&lt;/p&gt;&lt;hr&gt;&lt;p style=&quot;margin:0px;margin-left:8px;&quot;&gt;B00006F7RS&lt;br&gt;&lt;/p&gt;" style="verticalAlign=top;align=left;overflow=fill;fontSize=12;fontFamily=Helvetica;html=1;whiteSpace=wrap;" parent="1" vertex="1">
          <mxGeometry x="50" y="330" width="100" height="90" as="geometry" />
        </mxCell>
        <mxCell id="N-NKB87Ngrz7SJYQhEhb-14" value="&lt;p style=&quot;margin:0px;margin-top:4px;text-align:center;text-decoration:underline;&quot;&gt;&lt;b&gt;User&#39;s Rating&lt;/b&gt;&lt;/p&gt;&lt;hr&gt;&lt;p style=&quot;margin:0px;margin-left:8px;&quot;&gt;4.0&lt;br&gt;&lt;/p&gt;" style="verticalAlign=top;align=left;overflow=fill;fontSize=12;fontFamily=Helvetica;html=1;whiteSpace=wrap;" parent="1" vertex="1">
          <mxGeometry x="50" y="480" width="100" height="90" as="geometry" />
        </mxCell>
        <mxCell id="N-NKB87Ngrz7SJYQhEhb-19" value="" style="edgeStyle=orthogonalEdgeStyle;rounded=0;orthogonalLoop=1;jettySize=auto;html=1;" parent="1" source="N-NKB87Ngrz7SJYQhEhb-15" target="N-NKB87Ngrz7SJYQhEhb-18" edge="1">
          <mxGeometry relative="1" as="geometry" />
        </mxCell>
        <mxCell id="N-NKB87Ngrz7SJYQhEhb-15" value="&lt;span style=&quot;font-size: 20px;&quot;&gt;&lt;b&gt;Product&lt;br&gt;Embedding Layer&lt;/b&gt;&lt;/span&gt;" style="verticalAlign=middle;align=center;spacingTop=0;spacingLeft=0;spacingRight=12;shape=cube;size=10;direction=south;fontStyle=4;html=1;whiteSpace=wrap;spacing=0;" parent="1" vertex="1">
          <mxGeometry x="200" y="317.5" width="150" height="115" as="geometry" />
        </mxCell>
        <mxCell id="N-NKB87Ngrz7SJYQhEhb-18" value="200 x 1" style="whiteSpace=wrap;html=1;verticalAlign=middle;spacingTop=0;spacingLeft=0;spacingRight=0;fontStyle=0;align=center;spacing=0;horizontal=0;" parent="1" vertex="1">
          <mxGeometry x="405" y="325" width="30" height="100" as="geometry" />
        </mxCell>
        <mxCell id="N-NKB87Ngrz7SJYQhEhb-22" value="600x&amp;nbsp; 1" style="whiteSpace=wrap;html=1;verticalAlign=middle;spacingTop=0;spacingLeft=0;spacingRight=0;fontStyle=0;align=center;spacing=0;horizontal=0;" parent="1" vertex="1">
          <mxGeometry x="405" y="82.5" width="30" height="215" as="geometry" />
        </mxCell>
        <mxCell id="N-NKB87Ngrz7SJYQhEhb-50" style="edgeStyle=orthogonalEdgeStyle;rounded=0;orthogonalLoop=1;jettySize=auto;html=1;entryX=0;entryY=0.5;entryDx=0;entryDy=0;" parent="1" source="N-NKB87Ngrz7SJYQhEhb-34" target="N-NKB87Ngrz7SJYQhEhb-45" edge="1">
          <mxGeometry relative="1" as="geometry" />
        </mxCell>
        <mxCell id="N-NKB87Ngrz7SJYQhEhb-34" value="Concat" style="whiteSpace=wrap;html=1;spacingTop=0;spacingLeft=0;spacingRight=0;fontStyle=0;spacing=0;" parent="1" vertex="1">
          <mxGeometry x="480" y="76.25" width="70" height="487.5" as="geometry" />
        </mxCell>
        <mxCell id="N-NKB87Ngrz7SJYQhEhb-51" style="edgeStyle=orthogonalEdgeStyle;rounded=0;orthogonalLoop=1;jettySize=auto;html=1;" parent="1" source="N-NKB87Ngrz7SJYQhEhb-45" target="N-NKB87Ngrz7SJYQhEhb-46" edge="1">
          <mxGeometry relative="1" as="geometry" />
        </mxCell>
        <mxCell id="N-NKB87Ngrz7SJYQhEhb-45" value="200 x 1" style="whiteSpace=wrap;html=1;verticalAlign=middle;spacingTop=0;spacingLeft=0;spacingRight=0;fontStyle=0;align=center;spacing=0;horizontal=0;" parent="1" vertex="1">
          <mxGeometry x="580" y="270" width="30" height="100" as="geometry" />
        </mxCell>
        <mxCell id="N-NKB87Ngrz7SJYQhEhb-46" value="200 x 1" style="whiteSpace=wrap;html=1;verticalAlign=middle;spacingTop=0;spacingLeft=0;spacingRight=0;fontStyle=0;align=center;spacing=0;horizontal=0;" parent="1" vertex="1">
          <mxGeometry x="640" y="270" width="30" height="100" as="geometry" />
        </mxCell>
        <mxCell id="N-NKB87Ngrz7SJYQhEhb-47" style="edgeStyle=orthogonalEdgeStyle;rounded=0;orthogonalLoop=1;jettySize=auto;html=1;entryX=0;entryY=0.233;entryDx=0;entryDy=0;entryPerimeter=0;" parent="1" source="N-NKB87Ngrz7SJYQhEhb-22" target="N-NKB87Ngrz7SJYQhEhb-34" edge="1">
          <mxGeometry relative="1" as="geometry" />
        </mxCell>
        <mxCell id="N-NKB87Ngrz7SJYQhEhb-48" style="edgeStyle=orthogonalEdgeStyle;rounded=0;orthogonalLoop=1;jettySize=auto;html=1;entryX=0;entryY=0.613;entryDx=0;entryDy=0;entryPerimeter=0;" parent="1" source="N-NKB87Ngrz7SJYQhEhb-18" target="N-NKB87Ngrz7SJYQhEhb-34" edge="1">
          <mxGeometry relative="1" as="geometry" />
        </mxCell>
        <mxCell id="N-NKB87Ngrz7SJYQhEhb-49" style="edgeStyle=orthogonalEdgeStyle;rounded=0;orthogonalLoop=1;jettySize=auto;html=1;entryX=0;entryY=0.921;entryDx=0;entryDy=0;entryPerimeter=0;" parent="1" source="N-NKB87Ngrz7SJYQhEhb-14" target="N-NKB87Ngrz7SJYQhEhb-34" edge="1">
          <mxGeometry relative="1" as="geometry" />
        </mxCell>
        <mxCell id="D73C4jS4Ygv3wC38gtfG-4" style="edgeStyle=orthogonalEdgeStyle;rounded=0;orthogonalLoop=1;jettySize=auto;html=1;" edge="1" parent="1" source="D73C4jS4Ygv3wC38gtfG-1" target="N-NKB87Ngrz7SJYQhEhb-22">
          <mxGeometry relative="1" as="geometry" />
        </mxCell>
        <mxCell id="D73C4jS4Ygv3wC38gtfG-1" value="&lt;span style=&quot;font-size: 20px;&quot;&gt;&lt;b&gt;LSTM&lt;br&gt;&lt;/b&gt;&lt;/span&gt;" style="verticalAlign=middle;align=center;spacingTop=0;spacingLeft=0;spacingRight=0;shape=cube;size=10;direction=south;fontStyle=4;html=1;whiteSpace=wrap;spacing=0;" vertex="1" parent="1">
          <mxGeometry x="290" y="130" width="90" height="120" as="geometry" />
        </mxCell>
        <mxCell id="D73C4jS4Ygv3wC38gtfG-5" value="&lt;font style=&quot;font-size: 29px;&quot;&gt;Review Module&lt;/font&gt;" style="shape=module;align=left;spacingLeft=20;align=center;verticalAlign=middle;whiteSpace=wrap;html=1;" vertex="1" parent="1">
          <mxGeometry x="890" y="40" width="145" height="100" as="geometry" />
        </mxCell>
        <mxCell id="D73C4jS4Ygv3wC38gtfG-8" value="&lt;font style=&quot;font-size: 29px;&quot;&gt;Review Module&lt;/font&gt;" style="shape=module;align=left;spacingLeft=20;align=center;verticalAlign=middle;whiteSpace=wrap;html=1;" vertex="1" parent="1">
          <mxGeometry x="890" y="160" width="145" height="100" as="geometry" />
        </mxCell>
        <mxCell id="D73C4jS4Ygv3wC38gtfG-9" value="&lt;font style=&quot;font-size: 29px;&quot;&gt;Review Module&lt;/font&gt;" style="shape=module;align=left;spacingLeft=20;align=center;verticalAlign=middle;whiteSpace=wrap;html=1;" vertex="1" parent="1">
          <mxGeometry x="890" y="280" width="145" height="100" as="geometry" />
        </mxCell>
        <mxCell id="D73C4jS4Ygv3wC38gtfG-10" value="&lt;font style=&quot;font-size: 29px;&quot;&gt;Review Module&lt;/font&gt;" style="shape=module;align=left;spacingLeft=20;align=center;verticalAlign=middle;whiteSpace=wrap;html=1;" vertex="1" parent="1">
          <mxGeometry x="890" y="400" width="145" height="100" as="geometry" />
        </mxCell>
        <mxCell id="D73C4jS4Ygv3wC38gtfG-11" value="&lt;font style=&quot;font-size: 29px;&quot;&gt;Review Module&lt;/font&gt;" style="shape=module;align=left;spacingLeft=20;align=center;verticalAlign=middle;whiteSpace=wrap;html=1;" vertex="1" parent="1">
          <mxGeometry x="890" y="520" width="145" height="100" as="geometry" />
        </mxCell>
        <mxCell id="D73C4jS4Ygv3wC38gtfG-15" style="edgeStyle=orthogonalEdgeStyle;rounded=0;orthogonalLoop=1;jettySize=auto;html=1;" edge="1" parent="1" source="D73C4jS4Ygv3wC38gtfG-12" target="D73C4jS4Ygv3wC38gtfG-14">
          <mxGeometry relative="1" as="geometry" />
        </mxCell>
        <mxCell id="D73C4jS4Ygv3wC38gtfG-12" value="&lt;p style=&quot;margin:0px;margin-top:4px;text-align:center;text-decoration:underline;&quot;&gt;&lt;b&gt;Target Product Id&lt;/b&gt;&lt;/p&gt;&lt;hr&gt;&lt;p style=&quot;margin:0px;margin-left:8px;&quot;&gt;B0017HPE7E&lt;br&gt;&lt;/p&gt;" style="verticalAlign=top;align=left;overflow=fill;fontSize=12;fontFamily=Helvetica;html=1;whiteSpace=wrap;" vertex="1" parent="1">
          <mxGeometry x="905" y="650" width="100" height="90" as="geometry" />
        </mxCell>
        <mxCell id="D73C4jS4Ygv3wC38gtfG-14" value="&lt;span style=&quot;font-size: 20px;&quot;&gt;&lt;b&gt;Product&lt;br&gt;Embedding Layer&lt;/b&gt;&lt;/span&gt;" style="verticalAlign=middle;align=center;spacingTop=0;spacingLeft=0;spacingRight=12;shape=cube;size=10;direction=south;fontStyle=4;html=1;whiteSpace=wrap;spacing=0;" vertex="1" parent="1">
          <mxGeometry x="1075" y="637.5" width="150" height="115" as="geometry" />
        </mxCell>
        <mxCell id="D73C4jS4Ygv3wC38gtfG-30" style="edgeStyle=orthogonalEdgeStyle;rounded=0;orthogonalLoop=1;jettySize=auto;html=1;" edge="1" parent="1" source="D73C4jS4Ygv3wC38gtfG-16" target="D73C4jS4Ygv3wC38gtfG-29">
          <mxGeometry relative="1" as="geometry" />
        </mxCell>
        <mxCell id="D73C4jS4Ygv3wC38gtfG-16" value="Concat" style="whiteSpace=wrap;html=1;spacingTop=0;spacingLeft=0;spacingRight=0;fontStyle=0;spacing=0;" vertex="1" parent="1">
          <mxGeometry x="1285" y="40" width="70" height="720" as="geometry" />
        </mxCell>
        <mxCell id="D73C4jS4Ygv3wC38gtfG-19" style="edgeStyle=orthogonalEdgeStyle;rounded=0;orthogonalLoop=1;jettySize=auto;html=1;entryX=0;entryY=0.069;entryDx=0;entryDy=0;entryPerimeter=0;" edge="1" parent="1" source="D73C4jS4Ygv3wC38gtfG-5" target="D73C4jS4Ygv3wC38gtfG-16">
          <mxGeometry relative="1" as="geometry" />
        </mxCell>
        <mxCell id="D73C4jS4Ygv3wC38gtfG-24" style="edgeStyle=orthogonalEdgeStyle;rounded=0;orthogonalLoop=1;jettySize=auto;html=1;entryX=0.029;entryY=0.236;entryDx=0;entryDy=0;entryPerimeter=0;" edge="1" parent="1" source="D73C4jS4Ygv3wC38gtfG-8" target="D73C4jS4Ygv3wC38gtfG-16">
          <mxGeometry relative="1" as="geometry" />
        </mxCell>
        <mxCell id="D73C4jS4Ygv3wC38gtfG-25" style="edgeStyle=orthogonalEdgeStyle;rounded=0;orthogonalLoop=1;jettySize=auto;html=1;entryX=0.02;entryY=0.403;entryDx=0;entryDy=0;entryPerimeter=0;" edge="1" parent="1" source="D73C4jS4Ygv3wC38gtfG-9" target="D73C4jS4Ygv3wC38gtfG-16">
          <mxGeometry relative="1" as="geometry" />
        </mxCell>
        <mxCell id="D73C4jS4Ygv3wC38gtfG-26" style="edgeStyle=orthogonalEdgeStyle;rounded=0;orthogonalLoop=1;jettySize=auto;html=1;entryX=0.004;entryY=0.569;entryDx=0;entryDy=0;entryPerimeter=0;" edge="1" parent="1" source="D73C4jS4Ygv3wC38gtfG-10" target="D73C4jS4Ygv3wC38gtfG-16">
          <mxGeometry relative="1" as="geometry" />
        </mxCell>
        <mxCell id="D73C4jS4Ygv3wC38gtfG-27" style="edgeStyle=orthogonalEdgeStyle;rounded=0;orthogonalLoop=1;jettySize=auto;html=1;entryX=0.02;entryY=0.735;entryDx=0;entryDy=0;entryPerimeter=0;" edge="1" parent="1" source="D73C4jS4Ygv3wC38gtfG-11" target="D73C4jS4Ygv3wC38gtfG-16">
          <mxGeometry relative="1" as="geometry" />
        </mxCell>
        <mxCell id="D73C4jS4Ygv3wC38gtfG-28" style="edgeStyle=orthogonalEdgeStyle;rounded=0;orthogonalLoop=1;jettySize=auto;html=1;entryX=0.012;entryY=0.91;entryDx=0;entryDy=0;entryPerimeter=0;" edge="1" parent="1" source="D73C4jS4Ygv3wC38gtfG-14" target="D73C4jS4Ygv3wC38gtfG-16">
          <mxGeometry relative="1" as="geometry" />
        </mxCell>
        <mxCell id="D73C4jS4Ygv3wC38gtfG-33" value="" style="edgeStyle=orthogonalEdgeStyle;rounded=0;orthogonalLoop=1;jettySize=auto;html=1;" edge="1" parent="1" source="D73C4jS4Ygv3wC38gtfG-29" target="D73C4jS4Ygv3wC38gtfG-32">
          <mxGeometry relative="1" as="geometry" />
        </mxCell>
        <mxCell id="D73C4jS4Ygv3wC38gtfG-29" value="500 x 1" style="whiteSpace=wrap;html=1;verticalAlign=middle;spacingTop=0;spacingLeft=0;spacingRight=0;fontStyle=0;align=center;spacing=0;horizontal=0;" vertex="1" parent="1">
          <mxGeometry x="1405" y="275" width="30" height="250" as="geometry" />
        </mxCell>
        <mxCell id="D73C4jS4Ygv3wC38gtfG-35" value="" style="edgeStyle=orthogonalEdgeStyle;rounded=0;orthogonalLoop=1;jettySize=auto;html=1;" edge="1" parent="1" source="D73C4jS4Ygv3wC38gtfG-32" target="D73C4jS4Ygv3wC38gtfG-34">
          <mxGeometry relative="1" as="geometry" />
        </mxCell>
        <mxCell id="D73C4jS4Ygv3wC38gtfG-32" value="500 x 1" style="whiteSpace=wrap;html=1;verticalAlign=middle;spacingTop=0;spacingLeft=0;spacingRight=0;fontStyle=0;align=center;spacing=0;horizontal=0;" vertex="1" parent="1">
          <mxGeometry x="1475" y="275" width="30" height="250" as="geometry" />
        </mxCell>
        <mxCell id="D73C4jS4Ygv3wC38gtfG-34" value="Output" style="ellipse;whiteSpace=wrap;html=1;spacingTop=0;spacingLeft=0;spacingRight=0;fontStyle=0;spacing=0;" vertex="1" parent="1">
          <mxGeometry x="1560" y="360" width="80" height="80" as="geometry" />
        </mxCell>
      </root>
    </mxGraphModel>
  </diagram>
</mxfile>
